<svg width="24" height="25" viewBox="0 0 24 25" fill="none" xmlns="http://www.w3.org/2000/svg">
<g clip-path="url(#clip0_19_3848)">
<mask id="mask0_19_3848" style="mask-type:luminance" maskUnits="userSpaceOnUse" x="0" y="0" width="24" height="25">
<path d="M24 0.5H0V24.5H24V0.5Z" fill="white"/>
</mask>
<g mask="url(#mask0_19_3848)">
<path d="M23.2027 8.3522L13.6357 3.67866C12.811 3.26629 11.4089 3.26629 10.5842 3.67866L0.797251 8.3522C0.109966 8.6821 0 9.14945 0 9.39688C0 9.6443 0.109966 10.0842 0.797251 10.4416L1.5945 10.8264V15.2251C1.09966 15.4175 0.742268 15.9123 0.742268 16.4622C0.742268 17.012 1.09966 17.5068 1.56701 17.6993L0.329897 21.6306H3.79381L2.5567 17.6993C3.05155 17.5068 3.38144 17.012 3.38144 16.4622C3.38144 15.8848 3.02405 15.4175 2.52921 15.2251V11.2938L3.98625 12.0086V17.7268C3.98625 17.8092 4.01375 17.8917 4.06873 17.9742C4.20619 18.1391 6.76289 21.6306 11.9863 21.6306C17.2096 21.6306 19.7663 18.1117 19.8763 17.9742C19.9313 17.8917 19.9588 17.8092 19.9588 17.7268V12.0361L23.2027 10.4416C23.89 10.1117 24 9.6443 24 9.39688C23.9725 9.14945 23.89 8.6821 23.2027 8.3522ZM19.079 17.5893C18.6392 18.1391 16.2749 20.7783 11.9863 20.7783C7.69759 20.7783 5.33333 18.1391 4.89347 17.5893V12.3934L10.5842 15.1151C10.9966 15.3075 11.5464 15.4175 12.0962 15.4175C12.6735 15.4175 13.2234 15.3075 13.6357 15.0876L19.079 12.4209V17.5893ZM22.8179 9.67179L19.5189 11.2938C19.3814 11.2938 19.2715 11.3488 19.2165 11.4587L13.2509 14.3453C12.6735 14.6477 11.5464 14.6477 10.9416 14.3453L3.60137 10.8264L12.0412 9.83674C12.2887 9.80925 12.4536 9.58932 12.4261 9.36938C12.3986 9.12196 12.1787 8.95701 11.9588 8.9845L2.17182 10.1391L1.18213 9.67179C0.934708 9.56182 0.879725 9.42437 0.879725 9.42437C0.879725 9.39688 0.934708 9.28691 1.18213 9.17694L10.9691 4.47591C11.2715 4.33846 11.6838 4.25598 12.0962 4.25598C12.5361 4.25598 12.9759 4.33846 13.2509 4.47591L22.8179 9.14945C23.0653 9.25942 23.1203 9.36939 23.1203 9.42437C23.1203 9.42437 23.0378 9.56182 22.8179 9.67179Z" fill="black"/>
</g>
</g>
<defs>
<clipPath id="clip0_19_3848">
<rect width="24" height="24" fill="white" transform="translate(0 0.5)"/>
</clipPath>
</defs>
</svg>
